<svg width="1440" height="55" viewBox="0 0 1440 55" fill="none" xmlns="http://www.w3.org/2000/svg">
<path d="M-72.0044 55C-24.0044 1.66667 23.9956 1.66667 71.9956 55H-72.0044ZM-0.00439644 55C47.9956 -11.6667 95.9956 -11.6667 143.996 55H-0.00439644ZM71.9956 55C119.996 8.33333 167.996 8.33333 215.996 55H71.9956ZM143.996 55C191.996 -5 239.996 -5 287.996 55H143.996ZM215.996 55C263.996 8.33333 311.996 8.33333 359.996 55H215.996ZM287.996 55C335.996 -18.3333 383.996 -18.3333 431.996 55H287.996ZM359.996 55C407.996 -5 455.996 -5 503.996 55H359.996ZM431.996 55C479.996 8.33333 527.996 8.33333 575.996 55H431.996ZM503.996 55C551.996 -5 599.996 -5 647.996 55H503.996ZM575.996 55C623.996 21.6667 671.996 21.6667 719.996 55H575.996ZM647.996 55C695.996 1.66667 743.996 1.66667 791.996 55H647.996ZM719.996 55C767.996 15 815.996 15 863.996 55H719.996ZM791.996 55C839.996 28.3333 887.996 28.3333 935.996 55H791.996ZM863.996 55C911.996 21.6667 959.996 21.6667 1008 55H863.996ZM935.996 55C983.996 1.66667 1032 1.66667 1080 55H935.996ZM1008 55C1056 18.3333 1104 18.3333 1152 55H1008ZM1080 55C1128 8.33333 1176 8.33333 1224 55H1080ZM1152 55C1200 1.66667 1248 1.66667 1296 55H1152ZM1224 55C1272 21.6667 1320 21.6667 1368 55H1224ZM1296 55C1344 5 1392 5 1440 55H1296ZM1368 55C1416 -1.66667 1464 -1.66667 1512 55H1368Z" fill="white"/>
</svg>
